# xmcd
#
# Track frame offsets:
#	150
#	18866
#	35778
#	57003
#	73726
#	93075
#	112128
#	127360
#	151136
#	166962
#
# Disc length: 2497 seconds
#
# Revision: 0
# Processed by: cddbd v1.5.2PL0 Copyright (c) Steve Scherf et al.
# Submitted via: audiograbber 1.83.01
#
DISCID=8409bf0a
DTITLE=Mircea Baniciu - Secunda 2
DYEAR=1991
DGENRE=Rock
TTITLE0=Intoarcerea la Orient
TTITLE1=Dealul cu dor
TTITLE2=Diligenta de Bizant
TTITLE3=Un zvon
TTITLE4=Himera
TTITLE5=Masina timpului
TTITLE6=Pisica neagra
TTITLE7=Caruta
TTITLE8=Oda la bancile Elvetiei
TTITLE9=Invocatie in zori
EXTD=
EXTT0=
EXTT1=
EXTT2=
EXTT3=
EXTT4=
EXTT5=
EXTT6=
EXTT7=
EXTT8=
EXTT9=
PLAYORDER=
